# MagicaVoxel @ Ephtracy

# material
mtllib tiki_foot.mtl
usemtl palette

# normals
vn -1 0 0
vn 1 0 0
vn 0 0 1
vn 0 0 -1
vn 0 -1 0
vn 0 1 0

# texcoords
vt 0.0644531 0.5
vt 0.306641 0.5
vt 0.533203 0.5
vt 0.560547 0.5

# verts
v -5.5 0 1.5
v -5.5 0 -0.5
v -5.5 1 1.5
v -5.5 1 -0.5
v -4.5 0 2.5
v -4.5 0 1.5
v -4.5 0 -0.5
v -4.5 0 -1.5
v -4.5 1 2.5
v -4.5 1 1.5
v -4.5 1 -0.5
v -4.5 2 1.5
v -4.5 2 -0.5
v -4.5 2 -1.5
v -3.5 0 3.5
v -3.5 0 2.5
v -3.5 0 -1.5
v -3.5 0 -2.5
v -3.5 1 3.5
v -3.5 1 2.5
v -3.5 1 1.5
v -3.5 2 2.5
v -3.5 2 1.5
v -3.5 2 -0.5
v -3.5 2 -1.5
v -3.5 3 -0.5
v -3.5 3 -2.5
v -2.5 0 4.5
v -2.5 0 3.5
v -2.5 0 -2.5
v -2.5 0 -3.5
v -2.5 1 4.5
v -2.5 1 3.5
v -2.5 1 2.5
v -2.5 1 -3.5
v -2.5 1 -4.5
v -2.5 2 3.5
v -2.5 2 2.5
v -2.5 2 0.5
v -2.5 2 -0.5
v -2.5 2 -2.5
v -2.5 2 -4.5
v -2.5 2 -5.5
v -2.5 3 0.5
v -2.5 3 -0.5
v -2.5 3 -2.5
v -2.5 4 -0.5
v -2.5 4 -4.5
v -2.5 5 -4.5
v -2.5 5 -5.5
v -1.5 0 5.5
v -1.5 0 4.5
v -1.5 0 -3.5
v -1.5 0 -4.5
v -1.5 1 5.5
v -1.5 1 4.5
v -1.5 1 3.5
v -1.5 1 -3.5
v -1.5 1 -4.5
v -1.5 2 4.5
v -1.5 2 3.5
v -1.5 2 1.5
v -1.5 2 0.5
v -1.5 3 1.5
v -1.5 3 0.5
v -1.5 3 -0.5
v -1.5 4 0.5
v -1.5 4 -0.5
v -1.5 4 -2.5
v -1.5 4 -4.5
v -1.5 5 -2.5
v -1.5 5 -4.5
v -0.5 2 2.5
v -0.5 2 1.5
v -0.5 3 2.5
v -0.5 3 1.5
v -0.5 3 0.5
v -0.5 4 1.5
v -0.5 4 0.5
v -0.5 4 -0.5
v -0.5 4 -2.5
v -0.5 5 -0.5
v -0.5 5 -2.5
v 0.5 4 0.5
v 0.5 4 -0.5
v 0.5 5 0.5
v 0.5 5 -0.5
v 2.5 4 1.5
v 2.5 4 0.5
v 2.5 5 1.5
v 2.5 5 0.5
v 4.5 2 2.5
v 4.5 2 1.5
v 4.5 5 2.5
v 4.5 5 1.5
v -0.5 0 5.5
v -0.5 0 4.5
v -0.5 1 5.5
v -0.5 1 4.5
v 0.5 0 4.5
v 0.5 0 2.5
v 0.5 2 4.5
v 0.5 2 2.5
v 1.5 0 2.5
v 1.5 0 1.5
v 1.5 2 1.5
v 1.5 3 2.5
v 1.5 3 1.5
v 2.5 0 1.5
v 2.5 0 0.5
v 2.5 1 1.5
v 2.5 1 0.5
v 2.5 2 -4.5
v 2.5 2 -5.5
v 2.5 5 -4.5
v 2.5 5 -5.5
v 3.5 0 0.5
v 3.5 0 -0.5
v 3.5 0 -3.5
v 3.5 0 -4.5
v 3.5 1 0.5
v 3.5 1 -0.5
v 3.5 1 -3.5
v 3.5 1 -4.5
v 4.5 0 -0.5
v 4.5 0 -3.5
v 4.5 1 1.5
v 4.5 1 -0.5
v 4.5 1 -3.5
v 4.5 1 -4.5
v 4.5 2 1.5
v 4.5 2 -4.5
v 5.5 2 2.5
v 5.5 2 -4.5
v 5.5 5 2.5
v 5.5 5 -4.5
v -1.5 0 5.5
v -1.5 1 5.5
v -0.5 0 5.5
v -0.5 1 5.5
v -2.5 0 4.5
v -2.5 1 4.5
v -1.5 0 4.5
v -1.5 1 4.5
v -1.5 2 4.5
v -0.5 0 4.5
v -0.5 1 4.5
v -0.5 2 4.5
v 0.5 0 4.5
v 0.5 2 4.5
v -3.5 0 3.5
v -3.5 1 3.5
v -2.5 0 3.5
v -2.5 1 3.5
v -2.5 2 3.5
v -1.5 1 3.5
v -1.5 2 3.5
v -4.5 0 2.5
v -4.5 1 2.5
v -3.5 0 2.5
v -3.5 1 2.5
v -3.5 2 2.5
v -2.5 1 2.5
v -2.5 2 2.5
v -0.5 2 2.5
v -0.5 3 2.5
v 0.5 0 2.5
v 0.5 2 2.5
v 1.5 0 2.5
v 1.5 3 2.5
v 4.5 2 2.5
v 4.5 5 2.5
v 5.5 2 2.5
v 5.5 5 2.5
v -5.5 0 1.5
v -5.5 1 1.5
v -4.5 0 1.5
v -4.5 1 1.5
v -4.5 2 1.5
v -3.5 1 1.5
v -3.5 2 1.5
v -1.5 2 1.5
v -1.5 3 1.5
v -0.5 2 1.5
v -0.5 3 1.5
v -0.5 4 1.5
v 1.5 0 1.5
v 1.5 2 1.5
v 1.5 3 1.5
v 2.5 0 1.5
v 2.5 1 1.5
v 2.5 4 1.5
v 2.5 5 1.5
v 4.5 1 1.5
v 4.5 2 1.5
v 4.5 5 1.5
v -2.5 2 0.5
v -2.5 3 0.5
v -1.5 2 0.5
v -1.5 3 0.5
v -1.5 4 0.5
v -0.5 3 0.5
v -0.5 4 0.5
v 0.5 4 0.5
v 0.5 5 0.5
v 2.5 0 0.5
v 2.5 1 0.5
v 2.5 4 0.5
v 2.5 5 0.5
v 3.5 0 0.5
v 3.5 1 0.5
v -3.5 2 -0.5
v -3.5 3 -0.5
v -2.5 2 -0.5
v -2.5 3 -0.5
v -2.5 4 -0.5
v -1.5 3 -0.5
v -1.5 4 -0.5
v -0.5 4 -0.5
v -0.5 5 -0.5
v 0.5 4 -0.5
v 0.5 5 -0.5
v 3.5 0 -0.5
v 3.5 1 -0.5
v 4.5 0 -0.5
v 4.5 1 -0.5
v -1.5 4 -2.5
v -1.5 5 -2.5
v -0.5 4 -2.5
v -0.5 5 -2.5
v -2.5 4 -4.5
v -2.5 5 -4.5
v -1.5 4 -4.5
v -1.5 5 -4.5
v -5.5 0 -0.5
v -5.5 1 -0.5
v -4.5 0 -0.5
v -4.5 1 -0.5
v -4.5 0 -1.5
v -4.5 2 -1.5
v -3.5 0 -1.5
v -3.5 2 -1.5
v -3.5 0 -2.5
v -3.5 3 -2.5
v -2.5 0 -2.5
v -2.5 2 -2.5
v -2.5 3 -2.5
v -2.5 0 -3.5
v -2.5 1 -3.5
v -1.5 0 -3.5
v -1.5 1 -3.5
v 3.5 0 -3.5
v 3.5 1 -3.5
v 4.5 0 -3.5
v 4.5 1 -3.5
v -2.5 1 -4.5
v -2.5 2 -4.5
v -1.5 0 -4.5
v -1.5 1 -4.5
v 2.5 2 -4.5
v 2.5 5 -4.5
v 3.5 0 -4.5
v 3.5 1 -4.5
v 4.5 1 -4.5
v 4.5 2 -4.5
v 5.5 2 -4.5
v 5.5 5 -4.5
v -2.5 2 -5.5
v -2.5 5 -5.5
v 2.5 2 -5.5
v 2.5 5 -5.5
v -1.5 0 5.5
v -0.5 0 5.5
v -2.5 0 4.5
v -1.5 0 4.5
v -0.5 0 4.5
v 0.5 0 4.5
v -3.5 0 3.5
v -2.5 0 3.5
v -4.5 0 2.5
v -3.5 0 2.5
v 0.5 0 2.5
v 1.5 0 2.5
v -5.5 0 1.5
v -4.5 0 1.5
v 1.5 0 1.5
v 2.5 0 1.5
v 2.5 0 0.5
v 3.5 0 0.5
v -5.5 0 -0.5
v -4.5 0 -0.5
v 3.5 0 -0.5
v 4.5 0 -0.5
v -4.5 0 -1.5
v -3.5 0 -1.5
v -3.5 0 -2.5
v -2.5 0 -2.5
v -2.5 0 -3.5
v -1.5 0 -3.5
v 3.5 0 -3.5
v 4.5 0 -3.5
v -1.5 0 -4.5
v 3.5 0 -4.5
v 2.5 1 1.5
v 4.5 1 1.5
v 2.5 1 0.5
v 3.5 1 0.5
v 3.5 1 -0.5
v 4.5 1 -0.5
v -2.5 1 -3.5
v -1.5 1 -3.5
v 3.5 1 -3.5
v 4.5 1 -3.5
v -2.5 1 -4.5
v -1.5 1 -4.5
v 3.5 1 -4.5
v 4.5 1 -4.5
v 4.5 2 2.5
v 5.5 2 2.5
v 4.5 2 1.5
v -2.5 2 -4.5
v 2.5 2 -4.5
v 4.5 2 -4.5
v 5.5 2 -4.5
v -2.5 2 -5.5
v 2.5 2 -5.5
v -1.5 1 5.5
v -0.5 1 5.5
v -2.5 1 4.5
v -1.5 1 4.5
v -0.5 1 4.5
v -3.5 1 3.5
v -2.5 1 3.5
v -1.5 1 3.5
v -4.5 1 2.5
v -3.5 1 2.5
v -2.5 1 2.5
v -5.5 1 1.5
v -4.5 1 1.5
v -3.5 1 1.5
v -5.5 1 -0.5
v -4.5 1 -0.5
v -1.5 2 4.5
v -0.5 2 4.5
v 0.5 2 4.5
v -2.5 2 3.5
v -1.5 2 3.5
v -3.5 2 2.5
v -2.5 2 2.5
v -0.5 2 2.5
v 0.5 2 2.5
v -4.5 2 1.5
v -3.5 2 1.5
v -1.5 2 1.5
v -0.5 2 1.5
v -2.5 2 0.5
v -1.5 2 0.5
v -4.5 2 -0.5
v -3.5 2 -0.5
v -2.5 2 -0.5
v -4.5 2 -1.5
v -3.5 2 -1.5
v -0.5 3 2.5
v 1.5 3 2.5
v -1.5 3 1.5
v -0.5 3 1.5
v 1.5 3 1.5
v -2.5 3 0.5
v -1.5 3 0.5
v -0.5 3 0.5
v -3.5 3 -0.5
v -2.5 3 -0.5
v -1.5 3 -0.5
v -3.5 3 -2.5
v -2.5 3 -2.5
v -0.5 4 1.5
v 2.5 4 1.5
v -1.5 4 0.5
v -0.5 4 0.5
v 0.5 4 0.5
v 2.5 4 0.5
v -2.5 4 -0.5
v -1.5 4 -0.5
v -0.5 4 -0.5
v 0.5 4 -0.5
v -1.5 4 -2.5
v -0.5 4 -2.5
v -2.5 4 -4.5
v -1.5 4 -4.5
v 4.5 5 2.5
v 5.5 5 2.5
v 2.5 5 1.5
v 4.5 5 1.5
v 0.5 5 0.5
v 2.5 5 0.5
v -0.5 5 -0.5
v 0.5 5 -0.5
v -1.5 5 -2.5
v -0.5 5 -2.5
v -2.5 5 -4.5
v -1.5 5 -4.5
v 2.5 5 -4.5
v 5.5 5 -4.5
v -2.5 5 -5.5
v 2.5 5 -5.5

# faces
f 3/4/1 2/4/1 1/4/1
f 4/4/1 2/4/1 3/4/1
f 9/4/1 6/4/1 5/4/1
f 10/4/1 6/4/1 9/4/1
f 11/4/1 8/4/1 7/4/1
f 12/3/1 11/3/1 10/3/1
f 13/4/1 8/4/1 11/4/1
f 13/3/1 11/3/1 12/3/1
f 14/4/1 8/4/1 13/4/1
f 19/4/1 16/4/1 15/4/1
f 20/4/1 16/4/1 19/4/1
f 22/3/1 21/3/1 20/3/1
f 23/3/1 21/3/1 22/3/1
f 25/4/1 18/4/1 17/4/1
f 26/4/1 25/4/1 24/4/1
f 27/4/1 18/4/1 25/4/1
f 27/4/1 25/4/1 26/4/1
f 32/4/1 29/4/1 28/4/1
f 33/4/1 29/4/1 32/4/1
f 35/4/1 31/4/1 30/4/1
f 37/3/1 34/3/1 33/3/1
f 38/3/1 34/3/1 37/3/1
f 41/4/1 36/4/1 35/4/1
f 41/4/1 35/4/1 30/4/1
f 42/4/1 36/4/1 41/4/1
f 44/4/1 40/4/1 39/4/1
f 45/4/1 40/4/1 44/4/1
f 46/3/1 43/3/1 42/3/1
f 46/3/1 42/3/1 41/3/1
f 47/3/1 46/3/1 45/3/1
f 48/3/1 43/3/1 46/3/1
f 48/3/1 46/3/1 47/3/1
f 49/3/1 43/3/1 48/3/1
f 50/3/1 43/3/1 49/3/1
f 55/4/1 52/4/1 51/4/1
f 56/4/1 52/4/1 55/4/1
f 58/4/1 54/4/1 53/4/1
f 59/4/1 54/4/1 58/4/1
f 60/3/1 57/3/1 56/3/1
f 61/3/1 57/3/1 60/3/1
f 64/4/1 63/4/1 62/4/1
f 65/4/1 63/4/1 64/4/1
f 67/3/1 66/3/1 65/3/1
f 68/3/1 66/3/1 67/3/1
f 71/3/1 70/3/1 69/3/1
f 72/3/1 70/3/1 71/3/1
f 75/4/1 74/4/1 73/4/1
f 76/4/1 74/4/1 75/4/1
f 78/3/1 77/3/1 76/3/1
f 79/3/1 77/3/1 78/3/1
f 82/3/1 81/3/1 80/3/1
f 83/3/1 81/3/1 82/3/1
f 86/3/1 85/3/1 84/3/1
f 87/3/1 85/3/1 86/3/1
f 90/3/1 89/3/1 88/3/1
f 91/3/1 89/3/1 90/3/1
f 94/3/1 93/3/1 92/3/1
f 95/3/1 93/3/1 94/3/1
f 96/4/2 97/4/2 98/4/2
f 98/4/2 97/4/2 99/4/2
f 100/4/2 101/4/2 102/4/2
f 102/4/2 101/4/2 103/4/2
f 104/4/2 105/4/2 106/4/2
f 104/4/2 106/4/2 107/4/2
f 107/4/2 106/4/2 108/4/2
f 109/4/2 110/4/2 111/4/2
f 111/4/2 110/4/2 112/4/2
f 113/3/2 114/3/2 115/3/2
f 115/3/2 114/3/2 116/3/2
f 117/4/2 118/4/2 121/4/2
f 121/4/2 118/4/2 122/4/2
f 119/4/2 120/4/2 123/4/2
f 123/4/2 120/4/2 124/4/2
f 125/4/2 126/4/2 128/4/2
f 128/4/2 126/4/2 129/4/2
f 127/4/2 128/4/2 131/4/2
f 129/4/2 130/4/2 131/4/2
f 128/4/2 129/4/2 131/4/2
f 131/4/2 130/4/2 132/4/2
f 133/3/2 134/3/2 135/3/2
f 135/3/2 134/3/2 136/3/2
f 139/4/3 138/4/3 137/4/3
f 140/4/3 138/4/3 139/4/3
f 143/4/3 142/4/3 141/4/3
f 144/4/3 142/4/3 143/4/3
f 147/3/3 145/3/3 144/3/3
f 148/3/3 145/3/3 147/3/3
f 149/4/3 147/4/3 146/4/3
f 149/4/3 148/4/3 147/4/3
f 150/4/3 148/4/3 149/4/3
f 153/4/3 152/4/3 151/4/3
f 154/4/3 152/4/3 153/4/3
f 156/3/3 155/3/3 154/3/3
f 157/3/3 155/3/3 156/3/3
f 160/4/3 159/4/3 158/4/3
f 161/4/3 159/4/3 160/4/3
f 163/3/3 162/3/3 161/3/3
f 164/3/3 162/3/3 163/3/3
f 168/4/3 166/4/3 165/4/3
f 169/4/3 168/4/3 167/4/3
f 170/4/3 166/4/3 168/4/3
f 170/4/3 168/4/3 169/4/3
f 173/3/3 172/3/3 171/3/3
f 174/3/3 172/3/3 173/3/3
f 177/4/3 176/4/3 175/4/3
f 178/4/3 176/4/3 177/4/3
f 180/3/3 179/3/3 178/3/3
f 181/3/3 179/3/3 180/3/3
f 184/4/3 183/4/3 182/4/3
f 185/4/3 183/4/3 184/4/3
f 189/3/3 186/3/3 185/3/3
f 190/4/3 188/4/3 187/4/3
f 191/4/3 188/4/3 190/4/3
f 192/3/3 189/3/3 188/3/3
f 192/3/3 186/3/3 189/3/3
f 194/4/3 188/4/3 191/4/3
f 195/3/3 193/3/3 192/3/3
f 195/4/3 188/4/3 194/4/3
f 195/3/3 192/3/3 188/3/3
f 196/3/3 193/3/3 195/3/3
f 199/4/3 198/4/3 197/4/3
f 200/4/3 198/4/3 199/4/3
f 202/3/3 201/3/3 200/3/3
f 203/3/3 201/3/3 202/3/3
f 208/3/3 205/3/3 204/3/3
f 209/3/3 205/3/3 208/3/3
f 210/4/3 207/4/3 206/4/3
f 211/4/3 207/4/3 210/4/3
f 214/4/3 213/4/3 212/4/3
f 215/4/3 213/4/3 214/4/3
f 217/3/3 216/3/3 215/3/3
f 218/3/3 216/3/3 217/3/3
f 221/3/3 220/3/3 219/3/3
f 222/3/3 220/3/3 221/3/3
f 225/4/3 224/4/3 223/4/3
f 226/4/3 224/4/3 225/4/3
f 229/3/3 228/3/3 227/3/3
f 230/3/3 228/3/3 229/3/3
f 233/3/3 232/3/3 231/3/3
f 234/3/3 232/3/3 233/3/3
f 235/4/4 236/4/4 237/4/4
f 237/4/4 236/4/4 238/4/4
f 239/4/4 240/4/4 241/4/4
f 241/4/4 240/4/4 242/4/4
f 243/4/4 244/4/4 245/4/4
f 245/4/4 244/4/4 246/4/4
f 246/4/4 244/4/4 247/4/4
f 248/4/4 249/4/4 250/4/4
f 250/4/4 249/4/4 251/4/4
f 252/4/4 253/4/4 254/4/4
f 254/4/4 253/4/4 255/4/4
f 256/4/4 257/4/4 259/4/4
f 259/4/4 257/4/4 260/4/4
f 258/4/4 259/4/4 260/4/4
f 258/4/4 260/4/4 262/4/4
f 262/4/4 260/4/4 263/4/4
f 263/4/4 260/4/4 264/4/4
f 260/3/4 261/3/4 265/3/4
f 264/4/4 260/4/4 265/4/4
f 265/3/4 261/3/4 266/3/4
f 266/3/4 261/3/4 267/3/4
f 268/3/4 269/3/4 270/3/4
f 270/3/4 269/3/4 271/3/4
f 275/4/5 273/4/5 272/4/5
f 276/4/5 273/4/5 275/4/5
f 279/4/5 275/4/5 274/4/5
f 279/4/5 277/4/5 276/4/5
f 279/4/5 276/4/5 275/4/5
f 281/4/5 279/4/5 278/4/5
f 282/4/5 277/4/5 279/4/5
f 282/4/5 279/4/5 281/4/5
f 285/4/5 281/4/5 280/4/5
f 285/4/5 283/4/5 282/4/5
f 285/4/5 282/4/5 281/4/5
f 286/4/5 283/4/5 285/4/5
f 288/4/5 285/4/5 284/4/5
f 288/4/5 287/4/5 286/4/5
f 288/4/5 286/4/5 285/4/5
f 290/4/5 288/4/5 284/4/5
f 290/4/5 289/4/5 288/4/5
f 291/4/5 289/4/5 290/4/5
f 292/4/5 289/4/5 291/4/5
f 294/4/5 293/4/5 292/4/5
f 294/4/5 292/4/5 291/4/5
f 295/4/5 293/4/5 294/4/5
f 296/4/5 293/4/5 295/4/5
f 297/4/5 293/4/5 296/4/5
f 298/4/5 293/4/5 297/4/5
f 299/4/5 293/4/5 298/4/5
f 300/4/5 293/4/5 299/4/5
f 301/4/5 293/4/5 300/4/5
f 302/4/5 300/4/5 299/4/5
f 303/4/5 300/4/5 302/4/5
f 306/4/5 305/4/5 304/4/5
f 307/4/5 305/4/5 306/4/5
f 308/4/5 305/4/5 307/4/5
f 309/4/5 305/4/5 308/4/5
f 314/4/5 311/4/5 310/4/5
f 315/4/5 311/4/5 314/4/5
f 316/4/5 313/4/5 312/4/5
f 317/4/5 313/4/5 316/4/5
f 320/3/5 319/3/5 318/3/5
f 323/3/5 319/3/5 320/3/5
f 324/3/5 319/3/5 323/3/5
f 325/3/5 322/3/5 321/3/5
f 326/3/5 322/3/5 325/3/5
f 327/4/6 328/4/6 330/4/6
f 330/4/6 328/4/6 331/4/6
f 329/4/6 330/4/6 333/4/6
f 333/4/6 330/4/6 334/4/6
f 332/4/6 333/4/6 336/4/6
f 336/4/6 333/4/6 337/4/6
f 335/4/6 336/4/6 339/4/6
f 339/4/6 336/4/6 340/4/6
f 338/4/6 339/4/6 341/4/6
f 341/4/6 339/4/6 342/4/6
f 343/3/6 344/3/6 347/3/6
f 346/3/6 347/3/6 349/3/6
f 344/4/6 345/4/6 350/4/6
f 347/3/6 344/3/6 350/3/6
f 349/3/6 347/3/6 350/3/6
f 350/4/6 345/4/6 351/4/6
f 348/3/6 349/3/6 353/3/6
f 349/3/6 350/3/6 353/3/6
f 353/3/6 350/3/6 354/3/6
f 354/3/6 350/3/6 355/3/6
f 352/3/6 353/3/6 356/3/6
f 353/3/6 354/3/6 356/3/6
f 356/3/6 354/3/6 357/3/6
f 352/3/6 356/3/6 358/3/6
f 358/3/6 356/3/6 359/3/6
f 359/3/6 356/3/6 360/3/6
f 358/4/6 359/4/6 361/4/6
f 361/4/6 359/4/6 362/4/6
f 363/4/6 364/4/6 366/4/6
f 366/4/6 364/4/6 367/4/6
f 365/4/6 366/4/6 369/4/6
f 369/4/6 366/4/6 370/4/6
f 368/4/6 369/4/6 372/4/6
f 372/4/6 369/4/6 373/4/6
f 371/4/6 372/4/6 374/4/6
f 374/4/6 372/4/6 375/4/6
f 376/3/6 377/3/6 379/3/6
f 379/3/6 377/3/6 380/3/6
f 380/3/6 377/3/6 381/3/6
f 378/3/6 379/3/6 383/3/6
f 379/3/6 380/3/6 383/3/6
f 383/3/6 380/3/6 384/3/6
f 384/3/6 380/3/6 385/3/6
f 382/3/6 383/3/6 386/3/6
f 383/3/6 384/3/6 386/3/6
f 386/3/6 384/3/6 387/3/6
f 382/3/6 386/3/6 388/3/6
f 388/3/6 386/3/6 389/3/6
f 390/3/6 391/3/6 393/3/6
f 392/3/6 393/3/6 395/3/6
f 394/3/6 395/3/6 397/3/6
f 396/3/6 397/3/6 399/3/6
f 398/3/6 399/3/6 401/3/6
f 395/3/6 393/3/6 402/3/6
f 397/3/6 395/3/6 402/3/6
f 401/3/6 399/3/6 402/3/6
f 399/3/6 397/3/6 402/3/6
f 393/3/6 391/3/6 403/3/6
f 402/3/6 393/3/6 403/3/6
f 401/3/6 402/3/6 404/3/6
f 400/3/6 401/3/6 404/3/6
f 404/3/6 402/3/6 405/3/6
